<?xml version="1.0" standalone="no"?>
<!DOCTYPE svg PUBLIC "-//W3C//DTD SVG 1.1//EN" "http://www.w3.org/Graphics/SVG/1.1/DTD/svg11.dtd" >
<svg xmlns="http://www.w3.org/2000/svg" xmlns:xlink="http://www.w3.org/1999/xlink" version="1.1" viewBox="-10 0 2058 2048">
  <g transform="matrix(1 0 0 -1 0 1638)">
   <path fill="#000000"
d="M810 1431l-76 -113h580l-76 113q-10 15 -27 15h-375q-16 0 -26 -15zM1398 1538l147 -220h55h192h32q40 0 68 -28t28 -68t-28 -68t-68 -28h-32v-1216q0 -133 -93.5 -226.5t-226.5 -93.5h-896q-133 0 -226.5 93.5t-93.5 226.5v1216h-32q-40 0 -68 28t-28 68t28 68t68 28h32
h192h55l147 220q32 47 81 73.5t105 26.5h375q56 0 105.5 -26.5t81.5 -73.5zM448 1126v-1216q0 -53 37.5 -90.5t90.5 -37.5h896q53 0 90.5 37.5t37.5 90.5v1216h-1152zM768 870v-832q0 -26 -19 -45t-45 -19t-45 19t-19 45v832q0 26 19 45t45 19t45 -19t19 -45zM1088 870v-832
q0 -26 -19 -45t-45 -19t-45 19t-19 45v832q0 26 19 45t45 19t45 -19t19 -45zM1408 870v-832q0 -26 -19 -45t-45 -19t-45 19t-19 45v832q0 26 19 45t45 19t45 -19t19 -45z" />
  </g>

</svg>
