<svg width="2068" height="2048" xmlns="http://www.w3.org/2000/svg" xmlns:svg="http://www.w3.org/2000/svg" version="1.1">
 <g class="layer">
  <title>Layer 1</title>
  <g id="svg_1" transform="matrix(0.871262, 0, 0, -0.871262, 199.662, 1612.67)">
   <path d="m1914.84,1344.93l-673,-673l675,-675q60,-60 60,-144.5t-60,-144.5t-144.5,-60t-144.5,60l-675,673l-673,-673q-60,-60 -144.5,-60t-144.5,60t-60,144.5t60,144.5l673,675l-675,673q-60,60 -60,144.5t60,144.5t144.5,60t144.5,-60l675,-673l673,673q60,60 144.5,60t144.5,-60t60,-144.5t-60,-144.5z" fill="#000000" id="svg_2"/>
  </g>
 </g>

</svg>