<?xml version="1.0" standalone="no"?>
<!DOCTYPE svg PUBLIC "-//W3C//DTD SVG 1.1//EN" "http://www.w3.org/Graphics/SVG/1.1/DTD/svg11.dtd" >
<svg xmlns="http://www.w3.org/2000/svg" xmlns:xlink="http://www.w3.org/1999/xlink" version="1.1" viewBox="-10 0 2068 2048">
  <g transform="matrix(1 0 0 -1 0 1638)">
   <path fill="currentColor"
d="M1986 1288l-673 -673l675 -675q60 -60 60 -144.5t-60 -144.5t-144.5 -60t-144.5 60l-675 673l-673 -673q-60 -60 -144.5 -60t-144.5 60t-60 144.5t60 144.5l673 675l-675 673q-60 60 -60 144.5t60 144.5t144.5 60t144.5 -60l675 -673l673 673q60 60 144.5 60t144.5 -60
t60 -144.5t-60 -144.5z" />
  </g>

</svg>
