<?xml version="1.0" standalone="no"?>
<!DOCTYPE svg PUBLIC "-//W3C//DTD SVG 1.1//EN" "http://www.w3.org/Graphics/SVG/1.1/DTD/svg11.dtd" >
<svg xmlns="http://www.w3.org/2000/svg" xmlns:xlink="http://www.w3.org/1999/xlink" version="1.1" viewBox="-10 0 2058 2048">
  <g transform="matrix(1 0 0 -1 0 1638)">
   <path fill="currentColor"
d="M1984 971q10 -26 2.5 -52.5t-28.5 -45.5l-173 -158q7 -58 7 -101q0 -44 -7 -102l173 -158q21 -19 28.5 -45.5t-2.5 -52.5q-24 -63 -64 -137l-18 -33q-33 -56 -89 -124q-18 -21 -45 -29t-53 1l-223 71q-82 -62 -176 -101l-50 -229q-6 -28 -25.5 -47.5t-46.5 -23.5
q-86 -14 -170 -14t-170 14q-27 4 -47 24t-26 47l-50 229q-94 39 -176 101l-223 -71q-26 -8 -53 -1t-45 28q-51 62 -88 125l-19 32q-36 66 -63 138q-10 26 -2.5 52.5t28.5 45.5l173 158q-7 60 -7 102q0 43 7 101l-173 158q-21 19 -28.5 45.5t2.5 52.5q26 69 63 137l19 33
q37 63 88 125q18 21 45 28.5t53 -1.5l223 -71q85 64 176 102l50 228q6 27 26 47t47 24q82 15 170 15q84 0 170 -14q27 -4 47 -24t26 -48l50 -228q91 -38 176 -102l223 71q26 8 53 1t45 -28q51 -62 88 -125l19 -32q37 -68 63 -137v-1zM1024 294q133 0 226.5 93.5t93.5 226.5
t-93.5 226.5t-226.5 93.5t-226.5 -93.5t-93.5 -226.5t93.5 -226.5t226.5 -93.5z" />
  </g>

</svg>
