<?xml version="1.0" standalone="no"?>
<!DOCTYPE svg PUBLIC "-//W3C//DTD SVG 1.1//EN" "http://www.w3.org/Graphics/SVG/1.1/DTD/svg11.dtd" >
<svg xmlns="http://www.w3.org/2000/svg" xmlns:xlink="http://www.w3.org/1999/xlink" version="1.1" viewBox="-10 0 2068 2048">
  <g transform="matrix(1 0 0 -1 0 1638)">
   <path fill="currentColor"
d="M1736 1262q364 -535 303 -1165q0 -3 -2 -5q-234 -173 -512 -258h-3q-4 0 -5 2q-59 81 -105 170q-1 1 -1 3q0 5 5 7q86 32 160 76q3 1 3 5t-3 5q-11 8 -31 25q-2 2 -5 2l-1 -0.5l-1 -0.5q-249 -115 -513.5 -115t-516.5 115l-1 0.5l-1 0.5q-2 0 -4 -2q-13 -11 -32 -25
q-3 -1 -3 -5t4 -5q77 -46 159 -77q5 -2 5 -6q0 -2 -1 -3q-44 -86 -105 -170q-1 -2 -5 -2h-2q-279 86 -511 258q-2 2 -2 5q-29 302 41 591t261 574q1 2 2 2q198 92 417 130h1q5 0 6 -3q28 -50 53 -106q117 17 232 17q118 0 236 -17q24 56 52 106q2 3 6 3q215 -37 418 -130z
M684 329q77 0 130.5 60.5t53.5 146.5q1 85 -52.5 145.5t-131.5 60.5q-77 0 -130.5 -60.5t-53.5 -145.5q0 -86 54 -146.5t130 -60.5zM1364 329q78 0 131.5 60.5t53.5 146.5q1 85 -53 145.5t-132 60.5q-77 0 -130 -60.5t-53 -145.5q0 -86 53.5 -146.5t129.5 -60.5z" />
  </g>

</svg>
