<?xml version="1.0" standalone="no"?>
<!DOCTYPE svg PUBLIC "-//W3C//DTD SVG 1.1//EN" "http://www.w3.org/Graphics/SVG/1.1/DTD/svg11.dtd" >
<svg xmlns="http://www.w3.org/2000/svg" xmlns:xlink="http://www.w3.org/1999/xlink" version="1.1" viewBox="-10 0 2068 2048">
  <g transform="matrix(1 0 0 -1 0 1638)">
   <path fill="#f2b036"
d="M1408 614q0 -123 -13 -256h-742q-13 118 -13 256q0 123 13 256h742q13 -118 13 -256zM1523 870h493q32 -125 32 -256t-32 -256h-493q13 133 13 256t-13 256zM1974 998h-467q-61 391 -221 606q234 -62 415.5 -222.5t271.5 -383.5h1zM1377 998h-706q35 213 108 378
q61 136 134 206q60 56 111 56t111 -56q73 -70 134 -206q73 -165 108 -378zM541 998h-467q90 223 271.5 383.5t416.5 222.5q-160 -215 -221 -606zM32 870h493q-13 -133 -13 -256t13 -256h-493q-32 125 -32 256t32 256zM779 -149q-73 164 -108 379h706q-35 -215 -108 -379
q-61 -136 -134 -206q-58 -55 -111 -55q-52 0 -111 55q-73 70 -134 206zM541 230q30 -191 87 -347.5t134 -259.5q-234 62 -416 223t-272 384h467zM1974 230q-90 -223 -272 -384t-416 -223q77 103 134 259.5t87 347.5h467z" />
  </g>

</svg>
