<?xml version="1.0" standalone="no"?>
<!DOCTYPE svg PUBLIC "-//W3C//DTD SVG 1.1//EN" "http://www.w3.org/Graphics/SVG/1.1/DTD/svg11.dtd" >
<svg xmlns="http://www.w3.org/2000/svg" xmlns:xlink="http://www.w3.org/1999/xlink" version="1.1" viewBox="-10 0 2068 2048">
  <g transform="matrix(1 0 0 -1 0 1638)">
   <path fill="currentColor"
d="M228 1297h1592q94 0 161 -67t67 -161v-27q0 -34 -36 -57t-57 -61t-21 -82.5t21.5 -82.5t56.5 -61q36 -24 36 -58v-254h-2048v254q0 34 36 58q35 23 56.5 61t21.5 82.5t-21 82.5t-57 61t-36 57v27q0 94 67 161t161 67zM2048 273v-228q0 -47 -33 -80.5t-81 -33.5h-170v114
q0 23 -17 40t-40.5 17t-40 -17t-16.5 -40v-114h-342v114q0 23 -16.5 40t-40 17t-40 -17t-16.5 -40v-114h-342v114q0 23 -16.5 40t-40 17t-40 -17t-16.5 -40v-114h-342v114q0 23 -16.5 40t-40 17t-40.5 -17t-17 -40v-114h-170q-48 0 -81 33.5t-33 80.5v228h2048zM683 955
q0 48 -33.5 81t-80.5 33t-80.5 -33t-33.5 -81v-227q0 -48 33.5 -81t80.5 -33t80.5 33t33.5 81v227zM1138 955q0 48 -33.5 81t-80.5 33t-80.5 -33t-33.5 -81v-227q0 -48 33.5 -81t80.5 -33t80.5 33t33.5 81v227zM1593 955q0 48 -33.5 81t-80.5 33t-80.5 -33t-33.5 -81v-227
q0 -48 33.5 -81t80.5 -33t80.5 33t33.5 81v227z" />
  </g>

</svg>
