<?xml version="1.0" standalone="no"?>
<!DOCTYPE svg PUBLIC "-//W3C//DTD SVG 1.1//EN" "http://www.w3.org/Graphics/SVG/1.1/DTD/svg11.dtd" >
<svg xmlns="http://www.w3.org/2000/svg" xmlns:xlink="http://www.w3.org/1999/xlink" version="1.1" viewBox="-11 0 2069 2048">
  <g transform="matrix(1 0 0 -1 0 1638)">
   <path fill="#f2b036"
d="M1564 1038l-76 75q-102 101 -234 154t-265.5 53t-265.5 -53t-233.5 -154.5t-154.5 -233.5t-53 -265.5t53 -265.5t154.5 -233.5t233.5 -154.5t265.5 -53t265.5 53t234 155q41 41 100 41t100.5 -41.5t41.5 -100t-42 -99.5q-142 -142 -327 -216.5t-372 -74.5t-372 74.5
t-327.5 216.5t-216.5 327t-74 372t74 371.5t216.5 327t327.5 216.5t372 74t372 -74t327 -216l78 -78v226q0 59 41 100.5t100 41.5t100 -41.5t41 -100.5v-564q0 -59 -41 -100.5t-100 -41.5h-565q-59 0 -100 41.5t-41 100t41 100t100 41.5h222z" />
  </g>

</svg>
